<?xml version="1.0" standalone="no"?>
<!DOCTYPE svg PUBLIC "-//W3C//DTD SVG 20010904//EN"
 "http://www.w3.org/TR/2001/REC-SVG-20010904/DTD/svg10.dtd">
<svg version="1.0" xmlns="http://www.w3.org/2000/svg"
 width="512.000000pt" height="512.000000pt" viewBox="0 0 512.000000 512.000000"
 preserveAspectRatio="xMidYMid meet">

<g transform="translate(0.000000,512.000000) scale(0.100000,-0.100000)"
fill="#000000" stroke="none">
<path d="M60 3115 c0 -1680 2 -1945 14 -1945 8 0 14 -9 13 -19 0 -11 -6 -17
-14 -14 -11 4 -13 -97 -13 -536 l0 -541 325 0 c182 0 325 4 325 9 0 5 26 12
58 15 88 11 90 12 90 57 1 59 -14 61 -120 15 -36 -16 -38 -15 -38 2 0 16 13
21 75 32 l76 13 -6 80 c-3 44 -8 83 -10 87 -2 4 2 18 10 33 10 19 10 27 2 27
-8 0 -8 3 1 12 9 9 7 14 -6 24 -9 8 -12 14 -6 14 7 0 14 6 17 13 4 10 -2 13
-20 9 -20 -4 -23 -9 -19 -28 3 -13 9 -35 12 -49 6 -23 3 -25 -27 -25 -19 0
-49 -4 -67 -9 -20 -6 -32 -6 -32 0 0 5 6 9 13 9 6 0 32 10 57 21 l45 21 -42
15 -43 15 15 29 c16 31 51 39 73 17 8 -8 15 -8 26 2 13 10 15 31 10 124 -3 61
-3 135 1 164 5 44 9 51 21 41 12 -10 14 -2 16 52 0 35 1 70 1 77 -1 6 2 12 6
12 3 0 7 36 7 79 2 74 0 79 -16 68 -14 -8 -46 -8 -127 1 -59 7 -184 19 -278
28 -186 18 -240 34 -251 79 -3 14 -9 23 -13 21 -4 -3 -7 76 -6 174 0 101 4
175 9 170 4 -4 24 -6 42 -3 27 4 34 2 34 -10 0 -20 39 -33 54 -17 8 9 6 11
-10 6 -14 -4 -24 -2 -27 8 -4 10 -1 13 9 9 19 -7 18 21 -1 37 -19 16 -11 95
16 158 10 23 13 42 8 42 -13 0 -39 -62 -39 -92 -1 -17 -3 -19 -8 -8 -5 8 -8
47 -8 85 1 67 2 70 26 70 17 0 26 -7 30 -25 4 -18 8 -6 13 40 3 36 9 74 13 85
14 39 -52 -34 -77 -85 -55 -113 -37 -15 25 135 22 55 40 104 38 108 -5 17 51
163 89 233 22 40 40 76 39 79 -3 11 23 115 29 115 6 0 28 19 127 109 33 30 72
54 109 66 32 11 67 30 79 42 11 13 28 23 36 23 9 0 25 6 36 14 11 8 78 32 149
54 72 22 163 52 204 67 41 14 98 27 128 29 43 2 59 8 82 30 27 26 30 27 53 12
23 -15 27 -14 87 22 35 20 93 68 128 107 35 38 72 70 81 71 9 2 26 15 37 31
11 15 33 43 50 62 16 18 30 40 31 49 2 8 7 18 12 21 4 3 11 14 15 24 4 10 11
16 16 13 15 -10 41 5 42 23 0 13 2 12 10 -4 6 -14 7 -7 4 25 -3 25 -2 59 3 75
7 24 10 14 15 -59 3 -49 11 -94 16 -99 6 -6 8 1 6 19 -1 16 2 38 8 49 6 11 11
27 12 35 0 8 5 14 12 13 7 -2 10 6 8 16 -2 11 2 22 9 24 7 3 16 19 19 36 4 18
13 31 21 31 10 0 13 6 10 15 -4 10 0 15 11 15 10 0 13 5 9 12 -5 7 -2 9 8 5
18 -6 68 47 68 72 0 37 50 119 96 159 51 46 78 49 112 15 18 -17 25 -43 12
-43 -18 0 -4 -66 20 -90 47 -46 52 -57 40 -79 -9 -17 -8 -20 5 -15 11 5 13 2
9 -10 -4 -10 8 -30 35 -56 23 -23 41 -45 41 -50 0 -9 -32 -22 -46 -18 -16 4
-54 -13 -54 -24 0 -6 -3 -9 -6 -5 -3 3 -15 -3 -27 -14 -11 -10 -27 -19 -34
-19 -7 0 -13 -5 -13 -11 0 -5 -4 -7 -10 -4 -5 3 -15 -7 -21 -22 -6 -15 -16
-37 -21 -48 -5 -11 -10 -30 -11 -43 0 -12 -5 -22 -9 -22 -4 0 -8 -7 -8 -15 0
-9 -6 -18 -14 -21 -8 -3 -12 -13 -10 -22 5 -14 2 -13 -10 2 -9 11 -17 18 -19
15 -1 -2 -9 -12 -16 -22 -12 -15 -12 -17 3 -11 11 4 19 -1 25 -17 5 -13 7 -27
4 -32 -2 -4 2 -14 10 -22 9 -8 17 -19 19 -25 2 -6 20 -11 41 -12 30 -1 39 -6
43 -24 6 -23 29 -38 44 -29 23 14 36 -42 17 -72 -9 -14 -47 -18 -47 -5 0 4
-11 8 -25 8 -26 2 -159 84 -136 84 8 0 12 3 9 6 -4 3 -16 1 -27 -6 -17 -9 -21
-8 -21 5 0 8 -9 15 -20 15 -12 0 -20 7 -20 16 0 10 -6 14 -15 11 -18 -7 -30
11 -27 40 2 14 -4 26 -19 33 -15 9 -18 14 -10 20 8 4 2 11 -18 20 -17 7 -31
20 -31 29 0 9 -8 17 -18 18 -17 1 -18 -6 -15 -75 10 -229 7 -218 82 -371 57
-117 141 -386 141 -451 0 -26 23 -22 28 6 2 10 8 24 14 29 6 6 7 3 2 -10 -6
-18 -5 -18 15 3 12 12 26 20 31 17 13 -8 0 -41 -26 -66 -22 -21 -22 -23 -6
-35 23 -18 32 -17 32 2 0 14 3 14 15 4 13 -11 15 -10 9 6 -4 14 -3 15 4 6 7
-11 10 -11 15 2 4 9 11 16 17 16 5 0 0 -12 -13 -26 -21 -24 -33 -73 -19 -75
30 -6 51 -5 47 2 -3 4 -1 10 5 14 5 3 10 2 10 -4 0 -5 9 -8 19 -6 18 3 20 -5
27 -96 3 -55 8 -98 9 -97 4 4 18 128 17 149 0 10 13 20 35 27 29 9 34 8 29 -4
-3 -8 -2 -14 2 -14 13 0 32 -192 21 -211 -13 -25 -11 -39 6 -39 11 0 15 -12
16 -42 1 -91 11 -173 20 -177 6 -1 2 -10 -8 -18 -17 -13 -16 -13 5 -3 12 6 22
16 22 23 0 7 9 1 20 -13 20 -26 26 -45 12 -36 -5 3 -9 -1 -9 -9 0 -8 5 -11 10
-8 6 4 8 -8 4 -31 -3 -22 -2 -34 4 -31 5 4 9 -6 8 -22 0 -24 -2 -25 -8 -8 -7
17 -8 17 -13 -7 -3 -17 -1 -25 5 -21 6 4 8 0 4 -10 -7 -19 4 -22 19 -7 7 7 11
6 11 -5 0 -8 -7 -15 -16 -15 -13 0 -13 -2 -2 -9 7 -5 10 -14 6 -20 -4 -7 -1
-19 7 -28 9 -12 9 -15 1 -9 -7 4 -13 3 -13 -3 0 -5 4 -12 9 -16 5 -3 9 -29 9
-58 -1 -30 2 -59 6 -65 3 -6 2 -13 -4 -17 -6 -4 -8 -11 -4 -16 4 -6 11 -5 20
2 12 10 15 10 12 -2 -2 -8 -7 -17 -13 -21 -6 -5 -3 -8 7 -8 12 0 17 -13 22
-57 3 -32 5 -65 4 -73 0 -8 1 -19 2 -25 1 -5 2 -28 1 -49 -1 -36 -2 -38 -14
-21 -8 10 -19 15 -25 11 -16 -10 -15 -48 2 -71 13 -18 14 -17 30 11 14 24 16
25 10 5 -4 -15 -1 -27 7 -32 9 -6 10 -9 2 -9 -8 0 -9 -9 -3 -31 5 -18 7 -36 4
-40 -3 -5 -2 -14 2 -20 10 -17 12 -92 3 -111 -6 -10 -5 -18 2 -20 5 -2 11 -33
12 -70 1 -37 5 -64 8 -60 4 4 14 41 24 82 18 78 81 275 110 345 14 33 18 36
26 22 25 -44 58 2 45 64 -3 17 -1 39 4 49 6 10 56 54 113 98 56 44 142 123
190 175 59 64 124 122 198 174 61 43 131 92 155 110 79 57 211 68 273 22 16
-11 39 -44 51 -72 12 -29 38 -84 58 -124 21 -44 32 -78 28 -88 -3 -10 -9 -15
-12 -12 -4 3 -13 0 -20 -8 -8 -8 -21 -12 -28 -9 -8 3 -18 -7 -26 -26 -7 -17
-28 -47 -47 -66 -18 -19 -31 -39 -28 -45 8 -12 -35 -48 -58 -49 -11 0 -15 -5
-11 -11 4 -8 0 -8 -15 0 -22 12 -31 -2 -10 -15 13 -8 -27 -43 -48 -44 -7 0
-10 -6 -7 -14 3 -7 -1 -16 -9 -19 -15 -6 -38 -60 -57 -135 -10 -37 -14 -43
-32 -39 -14 4 -22 0 -25 -13 -6 -23 -72 -38 -84 -19 -4 7 -5 17 -3 21 3 4 1 8
-5 8 -5 0 -13 9 -16 21 -5 16 -12 19 -28 14 -12 -4 -51 -9 -87 -12 -36 -3 -67
-9 -68 -14 -2 -5 -9 -15 -16 -22 -17 -17 -37 -77 -29 -90 3 -6 1 -7 -5 -3 -7
4 -12 1 -12 -8 0 -17 -25 -22 -35 -7 -6 11 15 61 26 61 4 0 5 9 2 19 -3 11 5
49 17 85 24 74 20 91 -21 82 -15 -3 -31 -1 -34 4 -13 21 -41 9 -90 -37 -7 -7
-15 -10 -18 -7 -2 3 -7 -2 -10 -10 -4 -9 0 -21 7 -28 15 -15 10 -43 -15 -79
-10 -14 -15 -29 -11 -33 4 -4 2 -6 -3 -4 -6 2 -23 -10 -39 -25 -16 -16 -34
-26 -41 -23 -17 6 -30 -29 -44 -121 -18 -118 11 -213 65 -213 23 0 52 36 63
79 6 23 16 59 22 82 15 57 19 45 7 -19 -13 -65 -1 -97 45 -117 18 -8 25 -14
15 -15 -16 0 -23 -18 -19 -44 1 -4 -1 -18 -5 -30 -7 -21 -7 -21 -15 -1 -7 17
-8 16 -8 -7 -1 -26 -21 -42 -21 -16 0 6 -3 8 -7 5 -8 -8 38 -53 49 -50 5 2 8
-2 8 -7 0 -6 9 -10 19 -10 11 0 23 -5 26 -11 4 -6 13 -8 21 -5 8 3 14 1 14 -4
0 -6 9 -10 20 -10 11 0 20 -4 20 -9 0 -11 -59 -20 -65 -10 -3 4 -20 3 -39 -1
-19 -4 -36 -6 -38 -5 -2 2 -20 6 -40 9 -37 6 -45 0 -38 -29 9 -42 7 -56 -9
-52 -14 3 -16 -2 -13 -31 3 -23 1 -32 -6 -28 -6 3 -13 2 -17 -4 -3 -5 -1 -10
6 -10 10 0 10 -3 2 -11 -17 -17 -5 -37 20 -32 l22 4 -22 -13 c-36 -21 -15 -43
49 -50 9 -1 14 -6 11 -11 -3 -4 -7 -6 -10 -3 -9 9 -44 -14 -38 -25 4 -5 177
-9 441 -9 448 0 459 1 422 38 -7 7 -8 12 -2 12 5 0 9 12 8 28 -2 41 -3 44 -14
37 -6 -3 -13 1 -16 9 -3 9 -11 13 -16 10 -6 -4 -8 4 -6 17 2 16 9 23 21 21 20
-3 22 9 4 27 -10 10 -9 11 6 6 10 -4 17 -2 17 4 0 6 9 11 21 11 11 0 18 4 15
8 -14 23 228 67 308 56 45 -7 46 -6 46 19 0 36 -27 41 -148 33 -229 -17 -518
-91 -579 -148 l-23 -21 0 22 c0 50 76 88 265 134 159 39 252 52 373 52 l112 0
-6 30 c-13 67 -37 99 -79 108 -120 26 -455 -33 -599 -105 -46 -23 -116 -86
-116 -104 0 -7 -4 -15 -8 -18 -5 -3 -23 40 -42 95 -18 54 -36 99 -39 99 -3 0
-7 14 -8 30 -2 24 2 30 18 30 14 0 19 -5 16 -14 -3 -8 2 -20 11 -28 15 -12 16
-11 4 4 -12 15 -11 17 7 15 12 -1 20 -6 18 -11 -2 -6 4 -19 13 -29 15 -15 21
-16 44 -6 14 7 26 19 27 28 0 10 2 12 6 4 3 -10 8 -10 19 1 8 8 14 20 14 26 0
6 5 8 10 5 6 -3 10 1 10 10 0 20 25 46 35 37 5 -4 5 1 2 10 -3 9 1 22 8 28 8
7 14 15 13 18 -2 20 4 25 13 12 8 -12 9 -10 4 8 -4 15 -1 24 9 28 9 3 14 10
11 14 -3 5 1 15 9 23 8 8 12 17 9 20 -3 4 4 27 16 52 11 24 21 49 21 55 0 5 3
10 8 10 4 0 16 20 27 45 11 25 23 45 26 45 4 0 10 18 14 40 4 22 11 40 16 40
5 0 9 8 9 18 0 21 33 56 43 45 4 -3 7 -1 7 5 0 6 11 19 25 28 22 15 26 15 40
0 9 -9 25 -16 36 -16 10 0 19 -7 19 -15 0 -17 17 -20 22 -4 5 15 38 0 38 -18
0 -8 5 -11 11 -8 6 4 8 14 5 22 -7 17 83 -58 135 -114 20 -21 48 -59 62 -86
23 -41 24 -47 9 -47 -13 0 -14 -2 -3 -9 11 -7 11 -10 0 -15 -11 -5 -11 -7 -2
-12 7 -3 13 -12 13 -20 0 -8 4 -14 9 -14 5 0 11 -9 14 -20 4 -15 14 -20 44
-21 38 -1 38 -1 10 -12 -16 -6 -25 -17 -23 -24 3 -7 1 -15 -4 -18 -6 -4 -10
-14 -9 -23 0 -12 3 -11 9 6 5 12 16 22 25 22 19 0 20 -26 0 -34 -9 -3 -12 -12
-9 -21 5 -13 12 -10 35 17 18 21 28 27 29 18 0 -12 2 -13 9 -1 6 9 8 2 7 -20
-2 -19 -7 -33 -12 -32 -5 1 -9 -12 -10 -28 -1 -35 3 -37 17 -7 l10 23 -5 -22
c-5 -30 11 -40 19 -12 7 20 7 20 21 -6 19 -37 19 -37 -18 -33 -18 2 -33 -2
-35 -9 -3 -7 4 -9 18 -6 18 5 21 3 16 -11 -6 -16 -5 -16 15 -1 28 19 38 19 38
0 0 -8 -6 -15 -13 -15 -7 0 -23 -9 -34 -19 -12 -11 -23 -17 -26 -14 -3 2 -15
2 -27 -2 -16 -5 -19 -10 -10 -20 16 -19 2 -38 -22 -32 -16 5 -19 1 -16 -21 2
-18 11 -28 31 -33 15 -4 27 -4 27 1 0 4 7 10 14 13 10 4 13 1 9 -9 -3 -7 -1
-14 5 -14 6 0 12 4 14 10 2 5 20 11 41 12 30 3 34 5 22 14 -14 10 -14 12 1 18
9 4 19 4 22 1 3 -3 0 -5 -6 -5 -7 0 -3 -15 10 -35 21 -37 20 -45 -5 -49 -8 -1
-22 -7 -30 -14 -7 -7 -27 -13 -43 -14 -16 -1 -40 -9 -53 -17 -22 -14 -23 -14
-17 5 5 16 2 20 -19 20 -23 0 -24 -3 -20 -40 2 -23 4 -54 4 -69 1 -17 8 -30
19 -34 9 -3 26 -13 36 -22 11 -9 17 -11 13 -5 -4 6 10 10 36 11 23 0 32 -1 20
-4 -25 -5 -29 -13 -12 -30 12 -12 -34 -11 -64 2 -10 4 -21 4 -25 0 -4 -4 -1
-10 6 -12 6 -3 10 -9 6 -14 -3 -5 11 -9 31 -9 22 0 34 -4 30 -10 -3 -5 -19
-10 -36 -10 -19 0 -29 -5 -29 -15 0 -13 36 -15 266 -15 l266 0 -4 580 c-3 505
-5 580 -18 584 -11 3 -11 4 3 5 23 1 25 76 2 85 -8 3 -14 16 -14 28 1 17 2 18
6 6 2 -10 9 -18 15 -18 6 0 8 9 4 23 -14 47 -17 75 -6 82 5 3 10 14 10 23 0
15 -2 15 -10 2 -8 -13 -10 -12 -10 3 0 9 3 17 8 17 4 0 8 54 10 120 l3 120
-25 0 c-17 0 -26 5 -26 16 0 11 6 15 20 11 11 -3 20 -1 20 5 0 5 -9 12 -20 15
-28 7 -26 40 3 39 18 -1 23 5 25 32 2 19 -1 32 -8 32 -22 0 -40 29 -40 64 0
40 2 41 32 25 16 -9 19 -8 16 3 -3 7 -14 14 -26 16 -22 3 -31 22 -11 22 8 0 7
6 -2 17 -13 15 -11 16 16 10 17 -3 24 -4 17 -1 -6 3 -9 10 -6 16 3 5 -3 12
-15 15 -30 8 -25 74 7 88 18 8 22 17 20 47 -2 32 -5 38 -24 38 -13 0 -26 5
-29 10 -4 6 6 10 21 10 22 0 25 3 16 12 -7 7 -12 19 -12 27 0 14 2 14 10 1 5
-8 12 -11 17 -7 10 11 -26 75 -55 97 -30 24 -21 40 26 41 l37 1 -40 13 c-29 9
-45 9 -58 1 -9 -6 -13 -12 -7 -14 12 -4 13 -29 3 -35 -5 -3 -22 -8 -40 -12
l-32 -6 5 38 c11 84 16 105 21 99 3 -3 13 -1 22 4 13 7 20 2 30 -21 9 -20 18
-28 28 -25 8 3 25 6 39 6 l24 0 0 1179 c0 933 -3 1180 -13 1184 -9 4 -9 6 1 6
16 1 16 81 0 116 -9 19 -9 28 0 37 7 7 12 25 12 40 l0 28 -1185 0 -1185 0 0
-208 0 -207 103 -18 c56 -10 126 -22 155 -27 59 -11 68 -15 173 -79 40 -24 78
-56 88 -73 9 -16 37 -66 64 -111 52 -89 86 -186 91 -257 3 -40 11 -52 69 -112
37 -37 69 -63 72 -58 3 6 11 10 18 10 6 0 2 -6 -8 -14 -14 -10 -17 -17 -8 -27
16 -21 41 -107 48 -169 7 -55 0 -68 -9 -17 -2 14 -8 32 -12 39 -4 7 -9 26 -11
42 -2 16 -11 41 -20 55 -10 15 -18 31 -19 38 -3 17 -74 91 -103 108 -118 66
-129 69 -266 69 -81 0 -169 -7 -233 -18 -150 -27 -260 -20 -344 22 -35 17 -81
47 -103 65 l-40 35 -80 -30 c-44 -16 -95 -32 -113 -35 -34 -6 -39 -12 -21 -30
7 -7 9 -19 5 -29 -6 -16 -8 -15 -22 4 -10 15 -26 22 -49 22 -37 0 -65 -23 -92
-73 -8 -16 -17 -27 -19 -24 -7 7 21 61 40 76 14 12 16 50 16 281 0 147 -3 375
-7 508 l-6 242 -993 0 -994 0 0 -1945z m3652 1895 c21 0 30 -13 22 -34 -5 -14
-11 -12 -38 10 -40 34 -60 65 -25 41 13 -10 31 -17 41 -17z m-179 -8 c-5 -4
-12 -15 -16 -24 -7 -19 -37 -14 -37 6 0 18 5 21 36 23 15 0 23 -2 17 -5z
m-2735 -49 c-26 -25 -48 -25 -48 2 0 14 27 28 40 20 5 -3 12 0 15 6 4 5 10 8
13 4 3 -3 -6 -17 -20 -32z m222 13 c0 -7 -6 -19 -14 -25 -12 -10 -17 -8 -25 8
-8 14 -8 21 2 24 23 10 37 7 37 -7z m2660 -166 c-47 -3 -75 -7 -64 -8 29 -3
41 -32 14 -32 -15 0 -20 -7 -20 -25 0 -18 -5 -25 -20 -25 -17 0 -20 7 -20 50
l0 50 98 -2 97 -2 -85 -6z m90 -70 c0 -26 -27 -26 -60 0 l-25 20 43 0 c35 0
42 -3 42 -20z m-105 -10 c-3 -5 -13 -10 -21 -10 -8 0 -12 5 -9 10 3 6 13 10
21 10 8 0 12 -4 9 -10z m1275 -295 c0 -8 -6 -15 -14 -15 -17 0 -28 14 -19 24
12 12 33 6 33 -9z m40 0 c0 -8 -4 -15 -10 -15 -5 0 -10 7 -10 15 0 8 5 15 10
15 6 0 10 -7 10 -15z m-1264 -352 c-7 -7 -26 7 -26 19 0 6 6 6 15 -2 9 -7 13
-15 11 -17z m443 -10 c-3 -20 2 -24 16 -13 21 17 21 -9 -1 -36 -8 -10 -13 -13
-9 -6 3 6 1 12 -4 12 -6 0 -11 -6 -11 -14 0 -8 -3 -22 -6 -30 -5 -14 0 -16 37
-11 44 5 44 5 14 -9 -16 -7 -42 -16 -57 -20 -26 -6 -28 -4 -28 24 0 43 23 110
37 110 7 0 12 -3 12 -7z m-3154 -13 c-3 -6 4 -10 17 -10 20 0 21 -1 6 -16 -13
-13 -20 -14 -37 -4 -18 9 -20 14 -10 26 13 16 34 19 24 4z m2958 -10 c3 -11 2
-20 -3 -20 -12 0 -31 26 -23 33 11 12 21 7 26 -13z m47 -25 c0 -12 -20 6 -31
28 l-11 22 21 -22 c11 -12 21 -25 21 -28z m-2910 10 c-10 -13 -9 -15 11 -16
13 0 -3 -7 -35 -15 -33 -8 -61 -12 -64 -10 -8 9 9 26 26 26 9 1 28 7 42 15 32
18 35 18 20 0z m125 -20 c-27 -12 -28 -13 -7 -14 12 -1 22 -5 22 -10 0 -12
-103 -29 -111 -19 -3 5 -24 -5 -47 -22 -23 -17 -42 -26 -42 -21 0 15 26 31
107 66 74 32 141 49 78 20z m-1125 -34 c0 -10 -7 -24 -15 -31 -13 -11 -15 -8
-15 19 0 21 5 31 15 31 8 0 15 -8 15 -19z m1195 9 c-3 -5 -13 -10 -21 -10 -8
0 -12 5 -9 10 3 6 13 10 21 10 8 0 12 -4 9 -10z m897 -77 c-47 -79 -85 -134
-89 -129 -7 7 28 69 53 94 12 13 31 43 41 68 10 24 19 38 21 30 2 -7 -10 -36
-26 -63z m2082 45 c-3 -4 2 -8 10 -8 20 0 20 -29 0 -58 -19 -27 -26 -28 -41
-2 -18 27 -6 79 17 77 10 -1 16 -5 14 -9z m382 -25 c-3 -3 -13 -2 -23 1 -17 7
-17 8 2 22 18 13 20 13 23 -1 2 -9 1 -19 -2 -22z m-306 1 c0 -8 -4 -12 -10 -9
-5 3 -10 10 -10 16 0 5 5 9 10 9 6 0 10 -7 10 -16z m100 1 c0 -8 -7 -15 -15
-15 -16 0 -20 12 -8 23 11 12 23 8 23 -8z m96 -2 c-2 -10 -15 -22 -30 -28 -14
-6 -23 -14 -20 -18 4 -4 3 -7 -2 -7 -6 0 -15 5 -21 11 -9 9 -7 16 10 29 21 16
44 27 59 29 3 1 5 -7 4 -16z m64 7 c0 -5 -8 -10 -17 -10 -15 0 -16 2 -3 10 19
12 20 12 20 0z m-4495 -10 c-3 -5 -12 -10 -18 -10 -7 0 -6 4 3 10 19 12 23 12
15 0z m1463 -40 c13 -12 21 -25 18 -28 -7 -7 -81 15 -119 35 -17 9 -40 13 -58
9 -35 -7 -39 11 -5 20 15 3 40 -3 66 -16 23 -12 44 -19 47 -16 9 9 -18 36 -30
29 -6 -3 -7 -1 -3 5 8 14 48 -4 84 -38z m154 18 c-7 -7 -12 -8 -12 -2 0 14 12
26 19 19 2 -3 -1 -11 -7 -17z m-1558 -2 c-3 -8 2 -16 11 -18 12 -2 6 -8 -18
-19 -32 -14 -35 -14 -30 0 6 16 33 51 39 51 2 0 1 -6 -2 -14z m1005 11 c-2 -1
-13 -9 -24 -17 -19 -14 -19 -14 -6 3 7 9 18 17 24 17 6 0 8 -1 6 -3z m536
-126 c-3 -2 -13 3 -23 12 -10 10 -21 15 -24 12 -6 -6 -50 59 -61 88 -4 11 20
-9 53 -44 32 -35 57 -65 55 -68z m-765 105 c0 -3 -4 -8 -10 -11 -5 -3 -10 -1
-10 4 0 6 5 11 10 11 6 0 10 -2 10 -4z m1105 -42 c-8 -20 -15 -45 -15 -55 0
-20 15 -26 25 -9 11 19 22 10 18 -14 -6 -31 23 -43 48 -20 11 10 19 12 19 7 0
-21 -27 -33 -68 -30 -38 2 -41 4 -52 42 -9 32 -8 47 5 78 8 20 20 37 25 37 6
0 4 -15 -5 -36z m2325 -4 c0 -5 -10 -10 -22 -9 -22 0 -22 1 -3 9 11 5 21 9 23
9 1 1 2 -3 2 -9z m140 1 c-8 -5 -28 -11 -44 -15 -26 -6 -28 -5 -17 8 8 9 28
16 45 16 22 -1 27 -3 16 -9z m-2750 -41 c0 -22 -2 -40 -5 -40 -10 0 -24 50
-19 65 11 28 24 15 24 -25z m2280 10 c20 -14 27 -26 23 -40 -6 -22 -23 -28
-23 -8 0 7 -12 25 -27 40 -31 32 -14 37 27 8z m-3765 0 c3 -5 1 -10 -4 -10 -6
0 -11 5 -11 10 0 6 2 10 4 10 3 0 8 -4 11 -10z m4435 0 c0 -5 -2 -10 -4 -10
-3 0 -8 5 -11 10 -3 6 -1 10 4 10 6 0 11 -4 11 -10z m-3889 -29 c-12 -16 -28
-28 -36 -27 -21 3 -20 19 1 22 9 2 24 10 33 18 24 24 25 19 2 -13z m3166 10
c-1 -3 5 -16 12 -29 16 -29 8 -52 -18 -52 -11 0 -23 -5 -26 -10 -4 -7 3 -9 22
-5 26 5 26 5 5 -5 -13 -5 -28 -8 -32 -5 -5 3 -11 1 -15 -5 -3 -6 4 -14 17 -19
23 -10 22 -10 -4 -10 -17 -1 -27 4 -25 11 1 6 -15 23 -35 36 -46 31 -40 48 8
22 19 -11 36 -20 37 -20 2 0 4 14 5 31 3 40 17 66 36 66 8 0 14 -3 13 -6z
m-3458 -5 c-2 -2 -20 -11 -39 -20 l-35 -17 24 21 c13 11 30 20 39 20 8 0 13
-2 11 -4z m1501 -95 c20 -14 28 -61 10 -61 -20 0 -41 50 -45 107 -4 58 -4 58
5 13 6 -26 18 -51 30 -59z m2440 89 c-14 -4 -36 -8 -50 -8 l-25 0 25 8 c14 4
36 8 50 8 l25 0 -25 -8z m-2880 -40 c-25 -4 -60 -12 -77 -18 -24 -8 -32 -7
-30 1 2 15 46 24 107 24 l45 0 -45 -7z m2850 0 c0 -5 -7 -7 -15 -4 -8 4 -15 8
-15 10 0 2 7 4 15 4 8 0 15 -4 15 -10z m-3877 -17 c-7 -2 -19 -2 -25 0 -7 3
-2 5 12 5 14 0 19 -2 13 -5z m3313 -54 c11 -18 -3 -21 -45 -9 -23 6 -39 15
-36 20 3 5 13 6 23 3 14 -5 15 -3 5 8 -7 7 -13 17 -13 22 0 9 56 -28 66 -44z
m157 28 c6 -16 -26 -57 -44 -57 -8 0 -3 7 9 16 16 11 21 22 17 35 -7 21 10 27
18 6z m291 -2 c-10 -8 -23 -15 -28 -15 -6 0 -1 7 10 15 10 8 23 15 28 15 6 0
1 -7 -10 -15z m143 -7 c-3 -8 -6 -5 -6 6 -1 11 2 17 5 13 3 -3 4 -12 1 -19z
m83 -4 c0 -30 -19 -28 -31 4 -7 18 -5 22 11 22 15 0 20 -7 20 -26z m480 -15
c0 -4 -6 -11 -12 -15 -7 -4 -10 -3 -5 1 4 5 -3 20 -15 33 l-23 25 28 -18 c15
-9 27 -21 27 -26z m-4835 11 c13 -5 14 -9 5 -9 -8 0 -24 4 -35 9 -13 5 -14 9
-5 9 8 0 24 -4 35 -9z m3907 -37 c-4 -32 -6 -35 -13 -16 -8 23 -1 65 10 58 4
-2 5 -21 3 -42z m243 28 c6 -10 -34 -37 -47 -33 -5 1 -8 -2 -8 -8 0 -5 10 -10
23 -11 12 0 16 -3 8 -6 -11 -5 -11 -7 0 -14 10 -6 5 -9 -16 -9 -23 0 -27 3
-15 10 13 8 12 10 -4 10 -11 0 -28 -7 -38 -17 -21 -19 -24 -6 -4 20 14 18 76
65 88 66 4 1 9 -3 13 -8z m-579 -16 c10 -8 15 -14 9 -14 -5 0 -19 6 -29 14
-11 8 -15 15 -10 15 6 0 19 -7 30 -15z m-2116 -25 c0 -5 -12 -10 -27 -10 -22
0 -25 2 -13 10 20 13 40 13 40 0z m2405 0 c3 -5 1 -10 -4 -10 -6 0 -11 5 -11
10 0 6 2 10 4 10 3 0 8 -4 11 -10z m-2938 -22 c-3 -8 -6 -5 -6 6 -1 11 2 17 5
13 3 -3 4 -12 1 -19z m590 16 c-3 -3 -12 -4 -19 -1 -8 3 -5 6 6 6 11 1 17 -2
13 -5z m2128 -40 c1 -24 -18 -33 -30 -14 -7 12 14 54 23 45 4 -4 7 -18 7 -31z
m990 16 c-10 -11 -23 -20 -29 -20 -6 1 0 10 13 20 30 26 39 26 16 0z m-145
-20 c0 -4 -6 -10 -14 -13 -12 -5 -14 2 -7 31 2 7 21 -10 21 -18z m-690 -30 c8
-5 12 -11 10 -14 -3 -2 -14 2 -24 10 -22 15 -10 19 14 4z m294 -19 c-23 -11
-60 -36 -83 -56 -22 -21 -41 -33 -41 -28 0 5 4 13 9 18 5 6 11 19 13 30 2 14
19 24 58 37 73 22 95 22 44 -1z m-4159 -1 c-3 -5 0 -10 7 -10 21 0 -14 -20
-36 -20 -18 0 -18 1 -1 20 19 20 41 28 30 10z m4762 4 c-3 -3 -12 -4 -19 -1
-8 3 -5 6 6 6 11 1 17 -2 13 -5z m-140 -10 c-3 -3 -12 -4 -19 -1 -8 3 -5 6 6
6 11 1 17 -2 13 -5z m-1917 -44 c0 -5 -7 -7 -15 -4 -8 4 -15 1 -15 -5 0 -6 9
-11 21 -11 11 0 19 -3 17 -7 -2 -5 -12 -25 -21 -45 -23 -51 -73 -62 -114 -26
-10 8 -28 21 -41 27 -19 10 -21 15 -11 27 15 19 35 18 71 -3 29 -18 29 -18 48
7 11 14 18 31 15 38 -3 7 5 12 20 12 14 0 25 -4 25 -10z m2070 0 c-8 -5 -19
-10 -25 -10 -5 0 -3 5 5 10 8 5 20 10 25 10 6 0 3 -5 -5 -10z m-4440 -44 c0
-3 -4 -8 -10 -11 -5 -3 -10 -1 -10 4 0 6 5 11 10 11 6 0 10 -2 10 -4z m1245
-24 c-3 -3 -11 0 -18 7 -9 10 -8 11 6 5 10 -3 15 -9 12 -12z m-548 -24 c-3 -8
-6 -5 -6 6 -1 11 2 17 5 13 3 -3 4 -12 1 -19z m-527 -32 c-14 -14 -24 0 -16
21 6 15 8 15 16 3 6 -9 5 -19 0 -24z m-60 14 c0 -5 -2 -10 -4 -10 -3 0 -8 5
-11 10 -3 6 -1 10 4 10 6 0 11 -4 11 -10z m-44 -26 c-25 -14 -30 -14 -43 -2
-12 13 -8 15 29 16 l43 1 -29 -15z m3634 -4 c-24 -19 -40 -25 -40 -16 0 21 16
36 39 36 l26 0 -25 -20z m-3580 -15 c-7 -8 -20 -15 -29 -15 -12 1 -11 5 8 21
26 22 41 18 21 -6z m-120 -5 c0 -5 -7 -10 -16 -10 -8 0 -12 5 -9 10 3 6 10 10
16 10 5 0 9 -4 9 -10z m170 -32 c0 -3 -9 -4 -20 -1 -16 4 -18 8 -9 20 10 11
14 11 20 1 5 -7 9 -16 9 -20z m1045 2 c3 -6 -1 -7 -9 -4 -18 7 -21 14 -7 14 6
0 13 -4 16 -10z m916 -1 c28 -15 14 -29 -16 -16 -25 12 -33 27 -14 27 6 0 19
-5 30 -11z m2099 4 c0 -16 -19 -37 -26 -30 -16 16 -12 37 7 37 10 0 19 -3 19
-7z m-4090 -23 c0 -5 -9 -10 -21 -10 -11 0 -17 5 -14 10 3 6 13 10 21 10 8 0
14 -4 14 -10z m4040 0 c0 -5 -5 -10 -11 -10 -5 0 -7 5 -4 10 3 6 8 10 11 10 2
0 4 -4 4 -10z m135 -20 c17 -7 14 -9 -13 -9 -20 -1 -31 3 -27 9 7 12 13 12 40
0z m-4205 -8 c0 -10 -45 -32 -63 -32 -17 1 32 40 49 40 8 0 14 -4 14 -8z m607
-24 c-3 -7 -5 -2 -5 12 0 14 2 19 5 13 2 -7 2 -19 0 -25z m293 22 c8 -5 11
-10 5 -10 -5 0 -17 5 -25 10 -8 5 -10 10 -5 10 6 0 17 -5 25 -10z m1010 -27
c0 -3 -3 -3 -7 0 -3 4 -15 0 -25 -10 -11 -9 -18 -11 -18 -5 0 7 5 12 11 12 6
0 9 7 5 15 -4 13 -2 14 14 5 11 -6 20 -14 20 -17z m2405 17 c-3 -5 -10 -10
-16 -10 -5 0 -9 5 -9 10 0 6 7 10 16 10 8 0 12 -4 9 -10z m-3247 -17 c5 -18
-20 -16 -44 2 -18 15 -18 15 10 13 16 -2 31 -9 34 -15z m-1478 -53 c-17 -22
-34 -40 -37 -40 -2 0 10 18 27 40 17 22 34 40 37 40 2 0 -10 -18 -27 -40z
m210 30 c-20 -13 -43 -13 -35 0 3 6 16 10 28 10 18 0 19 -2 7 -10z m1266 -6
c27 -9 52 -19 56 -23 4 -3 -33 -6 -82 -6 -61 1 -94 5 -102 14 -11 11 -3 12 47
6 55 -6 58 -5 40 9 -26 20 -20 20 41 0z m1662 -28 c45 -6 146 -116 125 -137
-5 -5 -23 -5 -43 1 -19 6 -57 13 -85 16 -27 3 -61 8 -75 11 -48 11 -70 11 -70
0 0 -5 -3 -8 -6 -4 -3 3 1 16 10 29 9 12 16 17 16 11 0 -16 57 43 65 67 3 10
11 17 18 15 7 -2 27 -6 45 -9z m-2158 -11 c0 -12 -15 -15 -74 -15 -41 0 -82 3
-92 7 -16 6 -16 7 2 14 10 4 52 8 92 8 58 1 72 -2 72 -14z m47 -7 c-3 -8 -6
-5 -6 6 -1 11 2 17 5 13 3 -3 4 -12 1 -19z m303 -23 c-33 -19 -50 -18 -26 0
11 8 27 15 35 15 10 -1 7 -6 -9 -15z m82 -1 c-24 -9 -47 -13 -50 -9 -11 11 22
25 58 24 l35 0 -43 -15z m3448 -4 c0 -5 -5 -10 -11 -10 -5 0 -7 5 -4 10 3 6 8
10 11 10 2 0 4 -4 4 -10z m-3584 -55 c-11 -8 -24 -15 -30 -15 -5 0 -1 7 10 15
10 8 24 14 29 14 6 0 1 -6 -9 -14z m3289 5 c-3 -5 -13 -10 -21 -10 -8 0 -14 5
-14 10 0 6 9 10 21 10 11 0 17 -4 14 -10z m305 0 c12 -8 11 -10 -7 -10 -13 0
-23 5 -23 10 0 13 11 13 30 0z m-1903 -52 c-3 -8 -6 -5 -6 6 -1 11 2 17 5 13
3 -3 4 -12 1 -19z m-290 -45 c5 -15 -24 -72 -48 -95 -19 -19 -59 -25 -59 -9 0
5 -11 12 -25 15 -14 4 -23 11 -20 16 3 6 -1 10 -9 10 -8 0 -19 -8 -25 -17 -5
-10 -12 -15 -15 -12 -3 3 16 28 42 55 45 48 49 50 101 50 32 -1 56 -6 58 -13z
m601 -48 c-3 -3 -9 2 -12 12 -6 14 -5 15 5 6 7 -7 10 -15 7 -18z m-33 -15 c-3
-4 -15 -6 -27 -2 -21 5 -21 6 -2 12 21 8 37 3 29 -10z m-271 -26 c9 -8 16 -20
16 -25 0 -15 26 -39 34 -32 3 4 6 -2 6 -13 0 -43 83 -79 157 -68 69 10 84 25
42 40 l-34 12 46 1 c70 1 107 -19 140 -75 38 -64 38 -106 2 -130 -16 -9 -33
-24 -38 -31 -9 -12 -68 -21 -148 -23 -10 0 -15 -5 -11 -11 3 -6 -8 -3 -25 6
-17 9 -37 13 -43 9 -6 -4 -8 -3 -5 3 4 6 0 13 -8 17 -8 3 -23 22 -33 43 -21
46 -51 78 -78 85 -24 6 -27 -10 -6 -35 20 -24 4 -46 -30 -42 -16 2 -36 9 -44
16 -9 7 -41 13 -72 14 -54 1 -57 2 -60 28 -3 20 6 36 36 64 51 50 94 111 89
126 -4 13 21 36 40 37 6 0 19 -7 27 -16z m-172 -104 c-3 -8 -11 -19 -19 -23
-7 -4 -13 -17 -13 -28 0 -11 -4 -18 -8 -15 -5 3 -16 -6 -26 -20 -11 -13 -26
-24 -35 -24 -14 0 -14 -2 -1 -10 11 -7 5 -10 -22 -10 -21 0 -38 -5 -38 -10 0
-6 -9 -2 -21 9 -19 18 -20 21 -5 50 9 16 27 41 40 55 14 13 22 26 20 29 -8 8
64 0 77 -9 7 -4 9 -3 5 4 -7 11 6 18 34 18 12 0 16 -5 12 -16z m-2757 -19 c3
-5 1 -12 -5 -16 -5 -3 -10 1 -10 9 0 18 6 21 15 7z m-39 -28 c-10 -10 -19 5
-10 18 6 11 8 11 12 0 2 -7 1 -15 -2 -18z m-36 -20 c0 -15 2 -16 10 -3 8 13
10 13 10 -1 0 -22 -27 -32 -34 -13 -9 23 -7 34 4 34 6 0 10 -8 10 -17z m3055
-214 c6 1 10 -12 11 -28 l1 -29 -51 15 c-113 35 -131 42 -109 42 12 1 25 6 28
11 7 11 54 8 74 -5 6 -3 14 2 18 11 6 17 7 17 13 0 3 -10 10 -17 15 -17z
m1453 -8 c6 -41 -12 -43 -52 -5 l-37 35 43 -3 c37 -3 44 -7 46 -27z m97 19 c3
-5 2 -10 -4 -10 -5 0 -13 5 -16 10 -3 6 -2 10 4 10 5 0 13 -4 16 -10z m90 -22
c6 -35 -29 -168 -44 -168 -17 0 -28 130 -15 178 4 15 14 22 30 22 18 0 24 -7
29 -32z m-85 -14 c0 -8 -4 -12 -10 -9 -5 3 -10 10 -10 16 0 5 5 9 10 9 6 0 10
-7 10 -16z m140 -4 c0 -11 -4 -20 -10 -20 -5 0 -10 9 -10 20 0 11 5 20 10 20
6 0 10 -9 10 -20z m-350 -10 c0 -4 -6 -13 -14 -19 -11 -9 -15 -8 -20 5 -3 9
-4 20 -1 24 6 10 35 2 35 -10z m160 10 c0 -5 -2 -10 -4 -10 -3 0 -8 5 -11 10
-3 6 -1 10 4 10 6 0 11 -4 11 -10z m-101 -37 c18 -16 19 -21 7 -43 l-14 -24
-16 38 c-9 21 -16 40 -16 42 0 9 20 3 39 -13z m87 -22 c10 -17 21 -28 25 -25
11 7 36 -47 32 -67 -4 -17 -33 -29 -63 -28 -8 0 1 7 20 14 l35 13 -52 1 c-33
1 -53 -4 -56 -11 -3 -8 -9 -2 -17 13 -10 22 -9 32 5 58 18 35 19 35 78 -18 40
-36 33 -11 -8 29 -35 34 -43 50 -26 50 6 0 18 -13 27 -29z m-1646 11 c0 -5 -7
-9 -15 -9 -8 0 -15 4 -15 9 0 4 7 8 15 8 8 0 15 -4 15 -8z m1531 -43 c10 -30
10 -42 1 -51 -14 -14 -24 -5 -42 40 -10 25 -10 35 0 47 17 20 27 11 41 -36z
m312 31 c-3 -11 -7 -20 -9 -20 -2 0 -4 9 -4 20 0 11 4 20 9 20 5 0 7 -9 4 -20z
m-1773 -6 c0 -2 -9 -4 -21 -4 -11 0 -18 4 -14 10 5 8 35 3 35 -6z m1760 -44
c0 -11 -2 -20 -4 -20 -2 0 -12 -3 -21 -6 -14 -6 -14 -3 -4 20 14 31 29 34 29
6z m60 -50 c12 0 14 -37 3 -43 -5 -3 -15 2 -23 11 -13 14 -12 15 5 9 19 -7 19
-6 3 6 -10 8 -15 17 -11 20 3 4 1 7 -5 7 -7 0 -12 10 -12 23 1 21 2 20 16 -5
8 -16 19 -28 24 -28z m-1674 21 c-7 -11 22 -23 36 -15 6 4 9 1 7 -5 -3 -7 -8
-11 -13 -9 -4 2 -14 -13 -22 -32 -12 -27 -17 -31 -24 -20 -5 9 -5 19 2 28 8 9
8 16 0 24 -12 12 -5 38 10 38 5 0 7 -4 4 -9z m-24 -45 c7 5 8 2 3 -7 -5 -7
-10 -27 -11 -44 -2 -44 -3 -47 -14 -40 -6 3 -13 0 -16 -9 -3 -8 -12 -12 -20
-9 -8 3 -20 1 -27 -5 -11 -10 -46 -17 -57 -12 -3 1 -35 3 -71 5 -36 1 -71 5
-77 9 -22 13 -13 36 13 36 16 0 25 -6 25 -15 0 -22 14 -18 25 8 6 13 17 21 28
19 9 -2 17 2 17 9 0 6 7 9 15 5 8 -3 15 -2 15 3 0 12 63 21 74 11 12 -12 36
-1 36 16 0 8 6 21 13 28 10 12 13 12 15 0 2 -8 8 -11 14 -8z m1629 -57 l-10
-24 0 26 c-1 14 2 29 6 33 12 12 14 -9 4 -35z m-161 20 c0 -5 4 -8 8 -5 5 3
22 1 38 -4 29 -8 29 -8 -8 -9 -20 -1 -40 4 -44 10 -3 6 -17 9 -30 6 -14 -2
-27 0 -30 4 -3 5 11 9 30 9 20 0 36 -5 36 -11z m230 -14 c0 -8 -4 -15 -10 -15
-5 0 -10 7 -10 15 0 8 5 15 10 15 6 0 10 -7 10 -15z m50 5 c0 -5 -7 -10 -15
-10 -8 0 -15 5 -15 10 0 6 7 10 15 10 8 0 15 -4 15 -10z m-303 -36 c-3 -3 -12
-4 -19 -1 -8 3 -5 6 6 6 11 1 17 -2 13 -5z m90 -19 c0 -8 -6 -15 -14 -15 -17
0 -17 17 0 23 6 3 12 6 13 6 0 1 1 -6 1 -14z m-27 -25 c24 -15 7 -19 -25 -5
-23 10 -25 14 -10 14 11 0 27 -3 35 -9z m250 -10 c0 -11 -5 -20 -11 -20 -5 0
-7 5 -4 10 3 6 -1 10 -9 10 -8 0 -18 5 -21 10 -4 6 5 10 19 10 19 0 26 -5 26
-20z m-250 -26 c12 -12 11 -14 -15 -15 -30 -1 -30 -1 -5 -9 l25 -8 -24 -1
c-35 -1 -14 -19 29 -24 33 -4 33 -4 -8 -5 -43 -2 -49 3 -55 43 -1 11 -6 26
-11 34 -7 11 -3 13 20 7 16 -4 36 -14 44 -22z m87 10 c-3 -3 -12 -4 -19 -1 -8
3 -5 6 6 6 11 1 17 -2 13 -5z m123 2 c0 -3 -4 -8 -10 -11 -5 -3 -10 -1 -10 4
0 6 5 11 10 11 6 0 10 -2 10 -4z m-100 -36 c0 -5 -9 -10 -21 -10 -11 0 -17 5
-14 10 3 6 13 10 21 10 8 0 14 -4 14 -10z m60 -22 c0 -13 -4 -29 -9 -36 -6
-11 -10 -10 -15 4 -4 10 -1 21 6 26 10 6 8 8 -4 8 -10 0 -18 5 -18 10 0 6 9
10 20 10 14 0 20 -7 20 -22z m80 8 c0 -14 -21 -26 -46 -26 -27 0 -14 20 14 21
l27 1 -30 8 -30 8 33 1 c21 1 32 -4 32 -13z m-155 -26 c19 -8 19 -9 -2 -9 -12
-1 -25 4 -28 9 -7 12 2 12 30 0z m4 -64 c-9 -8 -10 -8 -5 2 4 7 1 12 -8 12
-22 0 -20 18 2 22 21 4 29 -20 11 -36z m-52 28 c-3 -3 -12 -4 -19 -1 -8 3 -5
6 6 6 11 1 17 -2 13 -5z m90 -26 c-3 -8 -6 -5 -6 6 -1 11 2 17 5 13 3 -3 4
-12 1 -19z m113 -3 c0 -8 -9 -15 -20 -15 -11 0 -20 7 -20 15 0 8 9 15 20 15
11 0 20 -7 20 -15z m-236 -30 c3 -9 0 -15 -8 -15 -8 0 -16 7 -20 15 -3 9 0 15
8 15 8 0 16 -7 20 -15z m80 9 c20 -8 21 -24 2 -24 -8 0 -16 7 -20 15 -6 17 -4
18 18 9z m-44 -35 c0 -14 -5 -19 -15 -16 -8 4 -17 2 -20 -3 -4 -6 6 -10 21
-10 33 0 29 -5 -11 -14 -16 -4 -27 -4 -23 0 4 4 3 13 -3 21 -9 10 -8 13 5 13
9 0 19 7 22 15 9 22 24 18 24 -6z m97 15 c-3 -3 -12 -4 -19 -1 -8 3 -5 6 6 6
11 1 17 -2 13 -5z m103 -29 c0 -30 -25 -34 -33 -6 -5 22 0 31 20 31 7 0 13
-11 13 -25z m-50 5 c0 -5 -4 -10 -10 -10 -5 0 -10 5 -10 10 0 6 5 10 10 10 6
0 10 -4 10 -10z m-100 -10 c0 -5 -4 -10 -10 -10 -5 0 -10 5 -10 10 0 6 5 10
10 10 6 0 10 -4 10 -10z m50 0 c0 -5 -7 -10 -16 -10 -8 0 -12 5 -9 10 3 6 10
10 16 10 5 0 9 -4 9 -10z m-2 -60 c-1 -26 -6 -40 -15 -40 -7 0 -13 7 -13 15 0
8 4 15 8 15 5 0 9 7 9 15 0 8 -4 15 -9 15 -5 0 -6 5 -3 10 14 22 25 8 23 -30z
m41 -27 c1 -7 -6 -13 -14 -13 -11 0 -14 8 -11 33 3 17 5 34 6 37 2 6 18 -41
19 -57z m58 41 c-3 -3 -12 -4 -19 -1 -8 3 -5 6 6 6 11 1 17 -2 13 -5z m-4722
-95 c-8 -30 -18 -67 -23 -84 l-9 -30 -4 37 c-3 20 -2 35 1 33 8 -5 35 94 32
115 -2 12 -1 12 8 -1 6 -11 5 -33 -5 -70z m3715 71 c0 -6 -11 -8 -27 -4 -40
10 -41 14 -5 14 18 0 32 -5 32 -10z m59 -24 c18 -22 -1 -27 -27 -6 -27 23 -30
45 -4 31 10 -5 24 -17 31 -25z m764 7 c7 -37 1 -41 -23 -15 -25 27 -25 42 -1
42 12 0 20 -9 24 -27z m37 7 c0 -11 -4 -20 -9 -20 -5 0 -7 9 -4 20 3 11 7 20
9 20 2 0 4 -9 4 -20z m150 0 c0 -5 -4 -10 -10 -10 -5 0 -10 5 -10 10 0 6 5 10
10 10 6 0 10 -4 10 -10z m-906 -27 c4 -5 18 -8 29 -8 14 0 21 -5 19 -14 -3
-12 0 -12 12 -2 17 15 22 8 28 -39 2 -14 9 -24 15 -23 7 2 20 -8 30 -21 10
-12 29 -28 42 -35 40 -22 67 -115 37 -127 -20 -8 -62 25 -77 59 -12 28 -36 39
-25 12 6 -17 -9 -21 -19 -5 -5 8 -12 7 -23 -2 -15 -12 -16 -11 -4 4 10 12 11
22 3 35 -9 16 -10 16 -11 -4 0 -13 -4 -23 -9 -23 -15 0 -20 27 -8 39 9 10 9
12 -3 9 -15 -3 -16 4 -5 34 5 13 2 15 -14 11 -13 -3 -21 -1 -21 8 0 7 -9 23
-21 35 -18 19 -19 25 -7 43 14 23 20 25 32 14z m802 -39 c-3 -9 -6 -22 -6 -30
0 -8 -4 -14 -8 -14 -5 0 -9 14 -9 30 0 19 5 30 15 30 9 0 12 -6 8 -16z m54 2
c0 -8 3 -21 6 -30 5 -12 0 -16 -20 -16 -22 0 -26 4 -26 30 0 23 4 30 20 30 11
0 20 -6 20 -14z m50 4 c0 -5 -2 -10 -4 -10 -3 0 -8 5 -11 10 -3 6 -1 10 4 10
6 0 11 -4 11 -10z m-3 -42 c-3 -8 -6 -5 -6 6 -1 11 2 17 5 13 3 -3 4 -12 1
-19z m-27 -53 c0 -11 -11 -15 -37 -15 -49 0 -28 20 30 29 4 0 7 -6 7 -14z
m-80 -5 c0 -5 -4 -10 -10 -10 -5 0 -10 5 -10 10 0 6 5 10 10 10 6 0 10 -4 10
-10z m160 0 c12 -8 11 -10 -7 -10 -13 0 -23 5 -23 10 0 13 11 13 30 0z m3 -50
c-5 -20 -33 -29 -33 -10 0 6 6 10 13 10 8 0 7 4 -3 10 -12 8 -11 10 7 10 16 0
20 -5 16 -20z m-168 0 c3 -5 1 -10 -4 -10 -6 0 -11 5 -11 10 0 6 2 10 4 10 3
0 8 -4 11 -10z m65 -10 c0 -13 -11 -13 -30 0 -12 8 -11 10 8 10 12 0 22 -4 22
-10z m34 -15 c3 -9 -1 -18 -9 -21 -8 -4 -12 -10 -9 -15 6 -10 -26 -12 -51 -3
-13 5 -9 11 17 30 40 28 44 28 52 9z m-745 -60 c0 -5 -6 -1 -14 9 -8 11 -15
24 -15 30 0 5 7 1 15 -10 8 -10 14 -23 14 -29z m-889 10 c-7 -8 -17 -15 -23
-15 -5 0 -2 9 8 20 21 23 35 19 15 -5z m1686 -22 c-11 -11 -17 4 -9 23 7 18 8
18 11 1 2 -10 1 -21 -2 -24z m-1735 -10 c-28 -52 -266 -222 -284 -204 -6 6 -9
12 -6 14 2 2 24 19 49 39 25 20 70 50 100 67 30 17 73 46 95 66 44 38 61 44
46 18z m1589 7 c0 -5 -4 -10 -10 -10 -5 0 -10 5 -10 10 0 6 5 10 10 10 6 0 10
-4 10 -10z m100 0 c0 -5 -5 -10 -11 -10 -5 0 -7 -4 -4 -10 3 -5 4 -10 1 -10
-3 0 -10 9 -16 20 -9 17 -8 20 10 20 11 0 20 -4 20 -10z m-715 -10 c3 -5 2
-10 -4 -10 -5 0 -13 5 -16 10 -3 6 -2 10 4 10 5 0 13 -4 16 -10z m640 0 c3 -5
1 -10 -4 -10 -6 0 -11 5 -11 10 0 6 2 10 4 10 3 0 8 -4 11 -10z m-688 -32 c-3
-7 -5 -2 -5 12 0 14 2 19 5 13 2 -7 2 -19 0 -25z m703 -3 c0 -9 -6 -12 -15 -9
-8 4 -15 10 -15 15 0 5 7 9 15 9 8 0 15 -7 15 -15z m45 -3 c6 -4 11 -20 12
-37 1 -28 0 -29 -13 -10 -11 15 -11 20 -1 27 8 5 7 8 -5 8 -10 0 -18 5 -18 10
0 12 11 13 25 2z m-4852 -23 c-6 -21 -29 -36 -39 -26 -12 11 8 47 26 47 13 0
17 -5 13 -21z m4835 -25 c-2 -1 -16 0 -33 3 -25 5 -27 7 -10 13 17 6 52 -7 43
-16z m22 -64 c0 -5 -2 -10 -4 -10 -3 0 -8 5 -11 10 -3 6 -1 10 4 10 6 0 11 -4
11 -10z m10 -42 c0 -4 -4 -8 -9 -8 -6 0 -12 4 -15 8 -3 5 1 9 9 9 8 0 15 -4
15 -9z m-2080 -58 c0 -5 -2 -10 -4 -10 -3 0 -8 5 -11 10 -3 6 -1 10 4 10 6 0
11 -4 11 -10z m2052 -5 c3 3 12 -3 21 -13 18 -20 18 -20 -34 -13 -4 1 -9 10
-12 22 -4 15 -2 18 7 10 7 -6 15 -9 18 -6z m-567 -15 c27 -7 25 -8 -17 -9 -26
0 -50 4 -53 9 -7 11 25 11 70 0z m-1475 -4 c0 -2 -7 -7 -16 -10 -8 -3 -12 -2
-9 4 6 10 25 14 25 6z m1364 -57 c14 -21 26 -41 26 -45 0 -9 -79 79 -80 88 -1
18 31 -7 54 -43z m-1356 7 c2 -9 0 -25 -4 -34 -4 -9 -6 -21 -4 -27 7 -26 6
-146 -2 -151 -4 -3 -6 -9 -3 -14 7 -12 -24 -82 -34 -75 -5 3 -7 42 -4 87 2 46
5 112 6 148 2 36 6 71 11 78 10 17 30 10 34 -12z m2072 4 c0 -18 -3 -19 -20
-8 -18 12 -19 13 -2 20 9 3 18 7 20 7 1 1 2 -8 2 -19z m-594 -19 c-6 -10 -63
-8 -73 3 -3 3 13 6 36 6 23 0 40 -4 37 -9z m29 -1 c-3 -6 1 -13 9 -16 12 -5
13 -10 5 -25 -5 -11 -7 -24 -4 -29 3 -5 -7 -15 -22 -23 -25 -14 -28 -13 -45 8
-24 30 -23 42 5 51 12 4 28 15 35 25 14 20 28 27 17 9z m568 -49 c11 -2 9 -91
-2 -91 -6 0 -23 11 -38 25 -22 20 -25 26 -14 34 8 5 11 16 8 24 -5 13 6 15 46
8z m9 -159 c-4 -11 -8 -11 -20 2 -13 13 -13 17 -2 31 13 16 15 16 21 -2 3 -10
4 -24 1 -31z m-1683 -20 c-6 -14 -13 -29 -17 -32 -4 -3 -16 -23 -25 -45 -10
-22 -27 -51 -38 -65 l-19 -25 15 38 c40 99 76 167 85 162 6 -4 5 -16 -1 -33z
m-3229 -22 c0 -5 -2 -10 -4 -10 -3 0 -8 5 -11 10 -3 6 -1 10 4 10 6 0 11 -4
11 -10z m60 -49 c0 -14 -25 -31 -45 -31 -16 1 -14 4 10 14 25 12 27 15 12 21
-9 4 -26 5 -37 2 -22 -6 -28 9 -7 16 14 5 67 -12 67 -22z m4858 -16 c-1 -31
-3 -32 -14 -17 -18 23 -17 52 1 52 10 0 14 -10 13 -35z m-58 -6 c0 -10 -4 -19
-10 -19 -5 0 -10 12 -10 26 0 14 4 23 10 19 6 -3 10 -15 10 -26z m-1593 1 c27
-21 15 -27 -18 -10 -11 7 -19 7 -19 1 0 -5 6 -12 13 -14 6 -3 1 -6 -13 -7
l-25 -2 25 -8 c24 -8 23 -8 -8 -9 -18 -1 -31 3 -28 8 3 4 10 20 15 35 12 31
24 33 58 6z m1106 -10 c-3 -12 -8 -19 -11 -16 -5 6 5 36 12 36 2 0 2 -9 -1
-20z m-1567 -2 c-3 -7 -7 -26 -11 -43 -6 -26 -8 -28 -17 -12 -7 13 -5 25 6 43
18 26 28 32 22 12z m1620 0 c4 -7 4 -10 -1 -6 -4 4 -15 2 -24 -5 -14 -11 -14
-10 -2 6 16 20 18 21 27 5z m19 -18 c-3 -5 -14 -10 -23 -9 -14 0 -13 2 3 9 27
11 27 11 20 0z m435 -50 c0 -5 -7 -10 -15 -10 -8 0 -15 5 -15 10 0 6 7 10 15
10 8 0 15 -4 15 -10z m34 -6 c8 -22 8 -24 -7 -24 -7 0 -13 9 -14 20 -2 24 12
27 21 4z m-4898 -26 c-18 -10 -39 -2 -31 12 3 4 15 6 26 3 19 -5 19 -7 5 -15z
m94 -3 c0 -8 -7 -15 -15 -15 -8 0 -15 7 -15 15 0 8 7 15 15 15 8 0 15 -7 15
-15z m-30 -45 c-14 -4 -41 -8 -60 -8 l-35 1 40 7 c57 10 87 10 55 0z m10 -115
c-11 -80 -13 -85 -37 -85 -41 0 -63 18 -63 50 0 27 3 29 28 24 22 -4 30 0 44
25 l17 31 -44 0 c-56 0 -59 18 -4 26 22 4 46 13 52 19 19 20 20 1 7 -90z m615
35 c3 -5 1 -10 -4 -10 -6 0 -11 5 -11 10 0 6 2 10 4 10 3 0 8 -4 11 -10z
m2640 0 c19 -8 19 -9 1 -9 -18 -1 -18 -2 -2 -20 10 -11 19 -25 20 -33 3 -13
14 -43 24 -63 18 -36 -31 31 -56 78 -31 56 -29 65 13 47z m1205 -99 c0 -5 -7
-11 -15 -15 -15 -5 -20 5 -8 17 9 10 23 9 23 -2z m-50 -41 c0 -5 -2 -10 -4
-10 -3 0 -8 5 -11 10 -3 6 -1 10 4 10 6 0 11 -4 11 -10z m22 -35 c18 0 19 -15
1 -15 -12 0 -24 7 -27 16 -4 10 -2 13 7 7 6 -4 15 -8 19 -8z m-4442 -10 c0
-11 -12 -15 -45 -15 -72 0 -53 24 23 29 13 0 22 -5 22 -14z m-2 -42 c-2 -13
-16 -20 -46 -24 -54 -7 -58 15 -4 29 53 14 54 14 50 -5z m4392 -94 c0 -7 12
-10 30 -7 16 2 31 0 33 -6 3 -7 -17 -11 -54 -12 -38 -1 -57 3 -56 10 4 20 47
34 47 15z m150 -4 c0 -2 -9 -3 -19 -2 -11 0 -18 5 -15 9 4 6 34 0 34 -7z
m-3936 -36 c-3 -5 8 -9 25 -9 16 0 33 -4 36 -10 7 -11 -40 -12 -99 -2 -47 8
-59 29 -19 34 36 4 64 -2 57 -13z m2372 5 c-4 -9 -2 -22 4 -29 8 -10 8 -15 -1
-21 -8 -4 -9 -3 -5 4 4 7 2 12 -3 12 -6 0 -11 11 -11 25 0 14 5 25 11 25 6 0
8 -7 5 -16z m854 -105 c0 -4 -7 -6 -15 -3 -8 4 -15 10 -15 15 0 4 7 6 15 3 8
-4 15 -10 15 -15z m-860 -13 c0 -3 -4 -8 -10 -11 -5 -3 -10 -1 -10 4 0 6 5 11
10 11 6 0 10 -2 10 -4z m1527 -22 c-3 -3 -12 -4 -19 -1 -8 3 -5 6 6 6 11 1 17
-2 13 -5z"/>
<path d="M2311 4968 c4 -131 2 -128 61 -128 l49 0 -3 108 -3 107 -53 3 -54 3
3 -93z"/>
<path d="M3143 4130 c38 -22 80 -43 95 -46 21 -4 17 0 -16 20 -45 26 -130 66
-141 66 -3 0 25 -18 62 -40z"/>
<path d="M2265 3280 c-3 -5 3 -10 14 -10 11 0 23 5 26 10 3 6 -3 10 -14 10
-11 0 -23 -4 -26 -10z"/>
<path d="M2336 3155 c-18 -13 -18 -14 3 -12 11 1 21 7 21 14 0 16 0 16 -24 -2z"/>
<path d="M2061 3035 c-2 -45 -12 -75 -25 -75 -6 0 -17 -14 -23 -31 l-12 -30
-28 17 c-28 18 -28 18 -12 -1 17 -20 19 -58 5 -72 -4 -5 -6 -2 -4 6 2 7 -5 15
-15 16 -15 3 -16 1 -6 -11 11 -13 9 -14 -14 -9 -16 4 -27 3 -27 -3 0 -5 -13
-9 -30 -8 l-30 2 22 -23 c12 -13 17 -23 12 -23 -5 0 4 -11 19 -25 29 -27 35
-40 15 -30 -7 4 -6 0 3 -7 14 -12 15 -16 4 -32 -8 -10 -19 -15 -27 -11 -39 20
51 -43 142 -99 58 -36 127 -84 155 -107 56 -46 105 -74 105 -60 0 6 -16 72
-35 147 -26 101 -53 175 -104 283 -38 80 -74 162 -79 181 l-10 35 -1 -30z
m-107 -372 c7 -17 -6 -16 -30 1 -18 14 -18 15 3 13 12 -1 25 -7 27 -14z"/>
<path d="M1860 2854 c0 -8 5 -12 10 -9 6 3 10 10 10 16 0 5 -4 9 -10 9 -5 0
-10 -7 -10 -16z"/>
<path d="M1540 2720 c-13 -8 -13 -10 2 -10 9 0 20 5 23 10 8 13 -5 13 -25 0z"/>
<path d="M1785 2590 c3 -5 11 -10 16 -10 6 0 7 5 4 10 -3 6 -11 10 -16 10 -6
0 -7 -4 -4 -10z"/>
<path d="M1022 2468 c2 -15 11 -24 26 -26 20 -3 23 0 20 20 -2 15 -11 24 -26
26 -20 3 -23 0 -20 -20z"/>
<path d="M1912 2473 c4 -21 36 -29 51 -14 9 9 8 14 -3 21 -25 16 -52 12 -48
-7z"/>
<path d="M2318 2335 c2 -19 6 -35 8 -35 2 0 4 16 4 35 0 19 -4 35 -8 35 -4 0
-6 -16 -4 -35z"/>
<path d="M2351 2334 c0 -11 3 -14 6 -6 3 7 2 16 -1 19 -3 4 -6 -2 -5 -13z"/>
<path d="M1468 2333 c7 -3 16 -2 19 1 4 3 -2 6 -13 5 -11 0 -14 -3 -6 -6z"/>
<path d="M1518 2333 c7 -3 16 -2 19 1 4 3 -2 6 -13 5 -11 0 -14 -3 -6 -6z"/>
<path d="M2268 2323 c6 -2 18 -2 25 0 6 3 1 5 -13 5 -14 0 -19 -2 -12 -5z"/>
<path d="M1403 2298 c-29 -32 -43 -62 -43 -93 0 -33 36 -105 54 -105 7 0 26
-12 42 -26 16 -14 43 -32 59 -40 28 -12 29 -13 6 -14 -13 0 -22 -2 -19 -5 2
-3 46 -7 96 -9 103 -5 119 3 108 55 -3 19 0 42 10 60 10 19 13 41 9 60 -5 22
-3 29 9 29 8 0 18 -4 21 -10 3 -5 11 -10 18 -10 6 0 1 7 -11 16 -31 21 -56 11
-50 -21 7 -36 -9 -31 -26 8 -8 17 -34 52 -57 77 -46 49 -34 27 18 -33 18 -20
33 -45 33 -55 0 -10 6 -24 13 -31 10 -10 8 -16 -10 -28 -13 -9 -23 -21 -23
-28 0 -16 -38 -50 -47 -42 -3 4 -14 0 -24 -9 -17 -15 -21 -15 -61 5 -62 31
-131 84 -146 112 -17 33 -8 84 23 125 30 39 29 45 -2 12z m287 -238 c0 -5 -7
-7 -15 -4 -8 4 -12 10 -9 15 6 11 24 2 24 -11z m-4 -21 c3 -6 1 -16 -6 -22
-10 -9 -14 -9 -17 1 -3 6 -9 10 -14 6 -11 -6 -31 5 -25 14 7 12 55 13 62 1z"/>
<path d="M2285 2300 c3 -5 10 -10 16 -10 5 0 9 5 9 10 0 6 -7 10 -16 10 -8 0
-12 -4 -9 -10z"/>
<path d="M2397 2263 c-10 -10 -8 -25 2 -18 6 3 14 -2 19 -12 9 -15 14 -15 37
-5 14 7 23 17 19 23 -4 8 -9 8 -17 0 -15 -15 -27 -14 -27 4 0 15 -21 21 -33 8z"/>
<path d="M1600 2201 c-27 -53 -25 -61 10 -61 36 0 54 28 41 63 -16 41 -29 40
-51 -2z"/>
<path d="M2379 2187 c-15 -17 -16 -47 -2 -47 3 0 3 7 0 15 -4 8 -2 17 3 20 4
3 11 -1 13 -7 3 -8 6 -5 6 5 1 14 6 17 21 12 14 -4 20 -2 20 9 0 21 -39 16
-61 -7z"/>
<path d="M867 2163 c-13 -12 -7 -23 13 -23 11 0 20 7 20 15 0 15 -21 21 -33 8z"/>
<path d="M1801 2158 c0 -9 -9 -19 -19 -22 -10 -4 -28 -27 -41 -52 l-22 -47 47
7 c26 3 55 13 64 21 9 8 21 15 26 15 14 0 54 -56 54 -75 0 -17 -35 -21 -45 -5
-7 11 -76 13 -123 4 -25 -5 -35 -16 -56 -64 -14 -32 -26 -74 -26 -94 0 -50
-24 -58 -56 -20 -13 16 -23 32 -24 36 0 3 18 25 40 48 57 59 54 74 -12 66 -29
-4 -60 -14 -69 -22 -24 -22 -48 -17 -60 12 -12 32 -24 25 -15 -10 8 -32 51
-42 94 -21 17 9 42 14 54 12 l23 -4 -22 -8 c-13 -4 -21 -11 -18 -15 3 -4 -2
-13 -10 -20 -8 -7 -15 -22 -15 -33 0 -24 46 -87 64 -87 18 0 46 33 46 53 0 9
7 17 15 17 17 0 19 13 6 38 -5 11 -2 31 9 58 18 40 18 41 75 43 31 1 63 -3 70
-9 8 -6 24 -10 37 -8 33 4 35 41 2 83 -28 37 -54 44 -73 21 -12 -15 -60 -30
-68 -22 -7 7 17 49 39 67 12 9 18 23 15 35 -4 15 -5 16 -6 2z"/>
<path d="M737 2130 c-15 -28 -14 -29 3 -20 10 6 27 10 38 10 11 0 22 9 25 20
4 17 0 20 -23 20 -22 0 -32 -7 -43 -30z"/>
<path d="M2440 2145 c0 -9 5 -15 11 -13 6 2 11 8 11 13 0 5 -5 11 -11 13 -6 2
-11 -4 -11 -13z"/>
<path d="M1520 2128 c-50 -14 -56 -24 -26 -43 32 -21 72 -13 79 17 10 38 3 42
-53 26z"/>
<path d="M2335 2130 c3 -5 8 -10 11 -10 2 0 4 5 4 10 0 6 -5 10 -11 10 -5 0
-7 -4 -4 -10z"/>
<path d="M5020 2126 c0 -2 9 -6 20 -9 11 -3 20 -1 20 4 0 5 -9 9 -20 9 -11 0
-20 -2 -20 -4z"/>
<path d="M1590 2108 c0 -7 5 -20 10 -28 8 -13 11 -13 26 2 9 9 13 21 10 27
-10 15 -46 14 -46 -1z"/>
<path d="M2340 2064 c0 -8 5 -12 10 -9 6 4 8 11 5 16 -9 14 -15 11 -15 -7z"/>
<path d="M5028 2073 c7 -3 16 -2 19 1 4 3 -2 6 -13 5 -11 0 -14 -3 -6 -6z"/>
<path d="M370 2060 c0 -6 5 -10 11 -10 8 0 10 -19 6 -62 -3 -40 -3 -52 3 -33
14 52 11 102 -5 109 -8 3 -15 1 -15 -4z"/>
<path d="M2613 1963 c-15 -5 -18 -33 -4 -33 13 0 33 28 24 33 -4 2 -14 2 -20
0z"/>
<path d="M892 1948 c-30 -30 -8 -89 41 -114 18 -9 34 -20 37 -24 3 -5 14 -10
25 -12 17 -2 20 3 23 40 3 40 -1 48 -37 83 -40 40 -68 48 -89 27z"/>
<path d="M372 1900 c0 -14 2 -19 5 -12 2 6 2 18 0 25 -3 6 -5 1 -5 -13z"/>
<path d="M5037 1904 c-8 -8 1 -24 14 -24 5 0 9 7 9 15 0 15 -12 20 -23 9z"/>
<path d="M1227 1863 c-14 -13 -6 -33 12 -33 25 0 38 20 20 31 -17 11 -24 11
-32 2z"/>
<path d="M310 1835 c0 -8 2 -15 4 -15 2 0 6 7 10 15 3 8 1 15 -4 15 -6 0 -10
-7 -10 -15z"/>
<path d="M894 1806 c-9 -23 7 -38 26 -26 13 8 13 11 -2 26 -16 17 -18 17 -24
0z"/>
<path d="M2680 1760 c0 -5 4 -10 9 -10 6 0 13 5 16 10 3 6 -1 10 -9 10 -9 0
-16 -4 -16 -10z"/>
<path d="M2675 1730 c-3 -5 -1 -10 4 -10 6 0 11 5 11 10 0 6 -2 10 -4 10 -3 0
-8 -4 -11 -10z"/>
<path d="M2437 1704 c-9 -10 4 -34 19 -34 8 0 14 9 14 20 0 19 -19 27 -33 14z"/>
<path d="M2295 1677 c-4 -10 -5 -21 -1 -24 10 -10 18 4 13 24 -4 17 -4 17 -12
0z"/>
<path d="M607 1674 c-10 -10 12 -44 28 -44 18 0 27 14 19 34 -6 16 -35 22 -47
10z"/>
<path d="M2043 1659 c-5 -5 -8 -21 -5 -35 3 -17 11 -24 28 -24 33 0 49 33 25
54 -20 19 -33 20 -48 5z"/>
<path d="M1075 1630 c-14 -14 -22 -30 -18 -34 4 -4 0 -4 -10 0 -10 3 -17 1
-17 -5 0 -6 11 -11 25 -11 23 0 25 -3 19 -27 -15 -63 -43 -113 -64 -113 -16 0
-20 -6 -18 -28 2 -32 -9 -55 -23 -47 -5 4 -10 16 -10 28 -1 12 -3 15 -5 7 -2
-8 0 -35 4 -60 6 -35 4 -55 -9 -87 -18 -42 -18 -42 1 -30 11 6 20 22 20 34 0
31 19 71 54 117 19 25 29 49 27 64 -1 14 6 33 17 45 11 12 28 41 37 65 13 33
20 40 30 32 10 -8 15 -8 20 0 8 13 -14 42 -26 34 -6 -3 -8 5 -5 19 6 32 -16
31 -49 -3z"/>
<path d="M1529 1624 c-11 -14 -10 -15 11 -12 13 1 25 9 28 16 5 17 -23 15 -39
-4z"/>
<path d="M2133 1603 c-20 -7 -15 -23 7 -23 11 0 20 4 20 9 0 13 -12 19 -27 14z"/>
<path d="M426 1581 c-8 -13 21 -34 39 -27 25 9 18 36 -9 36 -14 0 -27 -4 -30
-9z"/>
<path d="M1447 1560 c-18 -14 -25 -29 -25 -50 l1 -30 26 26 c14 15 27 37 28
50 2 29 2 29 -30 4z"/>
<path d="M2680 1490 c0 -5 5 -10 10 -10 6 0 10 5 10 10 0 6 -4 10 -10 10 -5 0
-10 -4 -10 -10z"/>
<path d="M2025 1470 c3 -5 8 -10 11 -10 2 0 4 5 4 10 0 6 -5 10 -11 10 -5 0
-7 -4 -4 -10z"/>
<path d="M942 1440 c0 -14 2 -19 5 -12 2 6 2 18 0 25 -3 6 -5 1 -5 -13z"/>
<path d="M1995 1440 c3 -5 8 -10 11 -10 2 0 4 5 4 10 0 6 -5 10 -11 10 -5 0
-7 -4 -4 -10z"/>
<path d="M2500 1435 c0 -8 4 -15 10 -15 5 0 7 7 4 15 -4 8 -8 15 -10 15 -2 0
-4 -7 -4 -15z"/>
<path d="M555 1432 c-7 -8 26 -42 40 -42 7 0 20 11 29 25 l16 25 -40 -2 c-22
-1 -42 -4 -45 -6z"/>
<path d="M2215 1420 c-3 -5 -2 -10 4 -10 5 0 13 5 16 10 3 6 2 10 -4 10 -5 0
-13 -4 -16 -10z"/>
<path d="M2710 1405 c0 -8 5 -15 10 -15 6 0 10 7 10 15 0 8 -4 15 -10 15 -5 0
-10 -7 -10 -15z"/>
<path d="M2220 1370 c0 -5 5 -10 11 -10 5 0 7 5 4 10 -3 6 -8 10 -11 10 -2 0
-4 -4 -4 -10z"/>
<path d="M1122 1348 c2 -6 10 -14 16 -16 7 -2 10 2 6 12 -7 18 -28 22 -22 4z"/>
<path d="M1110 1289 c0 -5 5 -7 10 -4 6 3 10 8 10 11 0 2 -4 4 -10 4 -5 0 -10
-5 -10 -11z"/>
<path d="M1445 1239 c-10 -15 3 -25 16 -12 7 7 7 13 1 17 -6 3 -14 1 -17 -5z"/>
<path d="M917 1193 c-4 -3 -7 -13 -7 -22 1 -13 3 -13 11 2 11 19 8 33 -4 20z"/>
<path d="M1393 1193 c-34 -4 -44 -28 -22 -50 14 -14 39 -6 39 13 0 8 7 17 15
20 15 6 22 25 8 22 -5 0 -23 -3 -40 -5z"/>
<path d="M2690 1166 c0 -9 5 -16 10 -16 6 0 10 4 10 9 0 6 -4 13 -10 16 -5 3
-10 -1 -10 -9z"/>
<path d="M2690 1113 c0 -5 5 -15 10 -23 8 -12 10 -11 10 8 0 12 -4 22 -10 22
-5 0 -10 -3 -10 -7z"/>
<path d="M1656 1099 c4 -6 -38 -57 -97 -118 l-104 -106 102 99 c56 55 105 98
107 95 7 -7 -239 -259 -253 -259 -18 0 -13 -45 8 -64 21 -19 193 -91 255 -107
23 -6 66 -17 96 -24 30 -7 61 -14 69 -16 8 -2 16 3 18 11 3 11 -7 15 -40 17
-90 4 -395 118 -405 151 -3 11 1 11 19 -1 50 -31 409 -157 409 -143 0 8 -43
121 -64 168 -14 31 -25 64 -24 75 0 10 -2 27 -6 38 -5 13 -2 11 8 -5 8 -14 16
-36 17 -50 1 -21 2 -22 6 -4 2 11 -6 42 -18 70 -11 27 -27 68 -34 92 -17 55
-41 92 -61 92 -9 0 -12 -5 -8 -11z m9 -196 c11 -13 35 -41 52 -61 18 -21 33
-48 33 -61 0 -32 -37 -71 -67 -71 -22 0 -72 44 -73 64 0 4 -12 17 -26 28 -43
34 -45 58 -11 100 35 43 58 44 92 1z"/>
<path d="M1602 878 c-16 -16 -15 -26 2 -43 12 -12 16 -11 31 5 15 16 15 22 5
35 -15 18 -22 19 -38 3z"/>
<path d="M1660 805 c-10 -13 -9 -19 5 -35 17 -19 19 -19 37 -3 17 15 17 17 2
35 -21 22 -28 22 -44 3z"/>
<path d="M3734 1095 c-4 -8 -13 -15 -21 -15 -8 0 -12 -4 -9 -9 10 -15 42 -1
43 20 2 23 -5 25 -13 4z"/>
<path d="M2695 1047 c-4 -10 -5 -21 -1 -24 10 -10 18 4 13 24 -4 17 -4 17 -12
0z"/>
<path d="M3105 1023 c-17 -39 -15 -52 4 -29 13 15 25 66 16 66 -2 0 -12 -16
-20 -37z"/>
<path d="M1830 981 c0 -15 6 -21 21 -21 25 0 22 33 -4 38 -12 2 -17 -3 -17
-17z"/>
<path d="M2686 968 c-10 -46 -5 -73 14 -73 10 0 16 12 18 38 2 20 -1 37 -7 37
-5 0 -11 8 -14 18 -2 10 -7 3 -11 -20z"/>
<path d="M1240 960 c-8 -5 -12 -12 -9 -15 4 -3 12 1 19 10 14 17 11 19 -10 5z"/>
<path d="M1256 927 c3 -10 9 -15 12 -12 3 3 0 11 -7 18 -10 9 -11 8 -5 -6z"/>
<path d="M910 890 c0 -5 5 -10 10 -10 6 0 10 5 10 10 0 6 -4 10 -10 10 -5 0
-10 -4 -10 -10z"/>
<path d="M2002 848 c7 -19 38 -22 38 -4 0 10 -9 16 -21 16 -12 0 -19 -5 -17
-12z"/>
<path d="M1196 818 c7 -10 34 -10 34 0 0 4 -9 8 -19 8 -11 0 -17 -4 -15 -8z"/>
<path d="M1780 824 c0 -5 11 -32 24 -60 14 -27 25 -42 25 -34 0 17 -48 110
-49 94z"/>
<path d="M1836 690 c3 -14 10 -32 15 -40 7 -13 8 -13 8 0 0 8 -6 26 -15 40
l-15 25 7 -25z"/>
<path d="M2475 698 c-16 -53 -19 -259 -4 -306 14 -43 2 -56 -35 -37 -36 19
-33 20 -41 -14 -4 -21 0 -38 20 -67 14 -21 23 -44 20 -52 -5 -12 -3 -13 10 -2
9 7 18 10 22 6 11 -11 -31 -36 -55 -32 -14 2 -21 -1 -19 -8 5 -15 47 -20 47
-6 0 6 10 3 24 -7 13 -10 22 -21 19 -25 -2 -5 5 -8 16 -8 26 0 36 -17 14 -23
-10 -2 -2 -2 17 0 35 5 35 5 16 -16 -11 -12 -27 -21 -37 -21 -10 0 -21 -5 -25
-11 -4 -7 8 -10 37 -8 43 3 80 28 91 61 4 10 8 10 20 1 11 -10 21 -8 50 12
l36 25 -4 -35 c-3 -29 -1 -35 14 -35 29 0 44 53 27 100 -7 21 -11 41 -7 45 3
3 -1 3 -11 -1 -9 -3 -14 -10 -11 -15 3 -5 0 -9 -5 -9 -15 0 -14 10 3 29 15 17
10 75 -5 65 -5 -3 -7 -9 -4 -14 6 -10 -23 -35 -32 -26 -4 3 4 20 16 37 25 34
25 49 -5 220 l-16 86 -66 26 c-37 14 -77 28 -89 32 -13 3 -23 11 -23 16 0 12
-1 13 87 -21 88 -34 83 -33 83 -21 0 8 -161 71 -181 71 -5 0 -11 -6 -14 -12z
m133 -175 c2 -13 -9 -35 -28 -56 -30 -35 -31 -36 -10 -47 11 -6 20 -15 20 -21
0 -5 -13 -3 -30 6 -16 9 -30 17 -30 20 0 2 14 19 30 37 17 18 30 40 30 50 0
21 -16 24 -23 6 -2 -7 -8 -10 -12 -6 -4 4 -5 14 -1 23 9 24 50 15 54 -12z m54
-20 c3 -10 0 -34 -7 -53 -10 -31 -12 -32 -17 -12 -4 12 -2 25 4 28 5 4 8 17 5
30 -5 27 8 33 15 7z m-22 -113 c0 -5 -7 -10 -15 -10 -8 0 -15 5 -15 10 0 6 7
10 15 10 8 0 15 -4 15 -10z m-90 -53 c0 -5 -4 -5 -10 -2 -5 3 -10 14 -10 23 0
15 2 15 10 2 5 -8 10 -19 10 -23z m-113 -13 c5 -13 8 -13 15 -2 8 10 9 10 5
-2 -5 -21 -41 -19 -45 3 -4 21 16 23 25 1z m127 -20 c3 -8 2 -12 -4 -9 -6 3
-10 10 -10 16 0 14 7 11 14 -7z m-79 -14 c4 -6 9 -9 13 -6 4 2 14 -12 23 -30
13 -26 14 -36 4 -44 -16 -13 -80 53 -72 74 7 18 23 21 32 6z m174 -88 c-12
-19 -59 -37 -59 -23 1 18 31 43 45 38 8 -4 15 -1 15 5 0 6 3 9 6 6 3 -3 0 -15
-7 -26z m-91 -15 c2 -10 -3 -17 -12 -17 -18 0 -29 16 -21 31 9 14 29 6 33 -14z
m132 -22 c-7 -8 -17 -15 -23 -15 -6 0 -2 7 9 15 25 19 30 19 14 0z"/>
<path d="M2505 231 c-3 -5 -1 -12 5 -16 5 -3 10 1 10 9 0 18 -6 21 -15 7z"/>
<path d="M2795 667 c-4 -10 -5 -21 -1 -24 10 -10 18 4 13 24 -4 17 -4 17 -12
0z"/>
<path d="M974 636 c-4 -10 -2 -22 4 -28 8 -8 13 -7 18 6 4 10 2 22 -4 28 -8 8
-13 7 -18 -6z"/>
<path d="M1230 625 c0 -8 5 -15 10 -15 6 0 10 7 10 15 0 8 -4 15 -10 15 -5 0
-10 -7 -10 -15z"/>
<path d="M2700 614 c0 -8 9 -14 19 -14 25 0 32 -12 20 -30 -7 -13 -9 -12 -9 3
0 9 -7 17 -15 17 -11 0 -14 -7 -10 -22 3 -13 9 -50 14 -83 15 -88 19 -106 31
-120 8 -9 8 -15 0 -20 -17 -10 -11 -54 10 -75 11 -11 16 -20 10 -20 -11 0 -2
-60 11 -74 4 -5 3 -20 -2 -34 -7 -17 -6 -33 3 -53 12 -26 18 -29 60 -29 35 0
48 4 48 14 0 8 -5 18 -10 21 -6 4 -8 10 -5 15 3 4 -1 10 -9 13 -8 3 -24 36
-37 74 -19 54 -24 89 -24 169 0 74 -3 100 -12 97 -6 -3 -14 -12 -16 -21 -3
-10 -3 0 0 22 2 21 -1 43 -6 50 -5 6 -11 31 -13 56 -3 38 -6 45 -30 51 -21 5
-28 4 -28 -7z m60 -214 c0 -5 -5 -10 -11 -10 -5 0 -7 5 -4 10 3 6 8 10 11 10
2 0 4 -4 4 -10z"/>
<path d="M2842 590 c0 -14 2 -19 5 -12 2 6 2 18 0 25 -3 6 -5 1 -5 -13z"/>
<path d="M4477 545 c7 -47 8 -49 22 -40 16 9 13 27 -9 55 l-19 25 6 -40z"/>
<path d="M1156 561 c-9 -14 4 -41 19 -41 15 0 28 27 19 41 -7 12 -31 12 -38 0z"/>
<path d="M2825 550 c3 -5 8 -10 11 -10 2 0 4 5 4 10 0 6 -5 10 -11 10 -5 0 -7
-4 -4 -10z"/>
<path d="M2809 523 c0 -5 -2 -16 -4 -25 -2 -10 1 -18 6 -18 5 0 9 4 9 9 0 5 3
16 6 25 3 9 1 16 -5 16 -6 0 -11 -3 -12 -7z"/>
<path d="M775 500 c4 -6 11 -8 16 -5 14 9 11 15 -7 15 -8 0 -12 -5 -9 -10z"/>
<path d="M1515 490 c-4 -6 -14 -9 -23 -8 -19 3 -18 -27 0 -49 22 -27 86 -5 88
29 0 14 -58 39 -65 28z"/>
<path d="M915 387 c-4 -10 -5 -21 -1 -24 10 -10 18 4 13 24 -4 17 -4 17 -12 0z"/>
<path d="M1190 375 c0 -9 5 -15 11 -13 6 2 11 8 11 13 0 5 -5 11 -11 13 -6 2
-11 -4 -11 -13z"/>
<path d="M4575 350 c3 -5 12 -7 20 -3 21 7 19 13 -6 13 -11 0 -18 -4 -14 -10z"/>
<path d="M911 273 c-5 -10 -11 -40 -12 -68 l-4 -50 38 -9 c32 -8 40 -7 56 11
11 12 17 23 14 27 -3 3 0 13 7 22 11 12 11 17 1 23 -6 4 -13 18 -14 30 -1 13
-6 20 -14 17 -7 -3 -13 -1 -13 4 0 17 -49 11 -59 -7z"/>
<path d="M2167 226 c-7 -16 1 -26 20 -26 7 0 13 9 13 20 0 23 -25 27 -33 6z"/>
<path d="M2150 132 c0 -5 20 -23 45 -41 51 -36 107 -41 113 -8 3 14 0 16 -21
8 -18 -7 -28 -6 -36 3 -6 7 -8 15 -5 18 5 5 -25 15 -73 24 -13 2 -23 1 -23 -4z"/>
<path d="M1145 96 c-29 -31 -27 -36 22 -35 38 0 43 2 26 9 -12 5 -25 15 -30
23 -6 11 -11 12 -18 3z"/>
<path d="M2054 78 c-10 -16 2 -19 47 -16 l44 3 -43 11 c-26 8 -44 8 -48 2z"/>
<path d="M2415 80 c3 -5 16 -10 28 -10 18 0 19 2 7 10 -20 13 -43 13 -35 0z"/>
<path d="M2756 75 c-3 -9 0 -15 9 -15 8 0 15 7 15 15 0 8 -4 15 -9 15 -5 0
-11 -7 -15 -15z"/>
<path d="M3046 80 c-11 -3 -15 -9 -10 -12 5 -3 18 -2 28 2 11 3 15 9 10 12 -5
3 -18 2 -28 -2z"/>
<path d="M2900 70 c0 -5 5 -10 11 -10 5 0 7 5 4 10 -3 6 -8 10 -11 10 -2 0 -4
-4 -4 -10z"/>
</g>
</svg>
